<svg width="33" height="33" viewBox="0 0 33 33" fill="none" xmlns="http://www.w3.org/2000/svg">
<g clip-path="url(#clip0_2619_43)">
<path fill-rule="evenodd" clip-rule="evenodd" d="M26.7539 33C25.8243 33 24.8947 32.6444 24.1872 31.9368L12.72 20.4696C9.31408 21.1866 5.7294 20.1384 3.2587 17.6677C0.247948 14.657 -0.606356 10.0167 1.13047 6.1234L1.68745 4.87393L8.39391 11.5804C8.81353 11.9981 9.49848 11.9981 9.9181 11.5804L11.8205 9.67796C12.0238 9.47284 12.1348 9.20376 12.1348 8.91587C12.1348 8.62796 12.0237 8.357 11.8205 8.15377L5.11407 1.44731L6.36354 0.890318C10.2587 -0.846514 14.899 0.00779097 17.9079 3.01667C20.5724 5.68307 21.566 9.63656 20.5178 13.2401L31.7009 24.4231C32.3877 25.1081 32.766 26.0207 32.766 26.9917C32.766 27.9607 32.3877 28.8734 31.7009 29.5583L29.3243 31.9368C28.6149 32.6444 27.6853 33 26.7539 33Z" fill="url(#paint0_linear_2619_43)"/>
</g>
<defs>
<linearGradient id="paint0_linear_2619_43" x1="-16.5" y1="46.5" x2="56" y2="-5.5" gradientUnits="userSpaceOnUse">
<stop stop-color="#3BA563"/>
<stop offset="1" stop-color="#3B65A5"/>
</linearGradient>
<clipPath id="clip0_2619_43">
<rect width="33" height="33" fill="white"/>
</clipPath>
</defs>
</svg>
